<?xml version="1.0" encoding="utf-8"?>
<svg viewBox="83.815 127.167 218.208 153.903" xmlns="http://www.w3.org/2000/svg">
  <path d="M 228.768 227.42 C 232.24 237.371 212.938 259.117 193.239 259.117 C 173.54 259.117 156.917 236.635 157.432 227.42 C 157.947 218.205 170.524 188.665 193.489 189.233 C 216.454 189.801 225.296 217.469 228.768 227.42 Z" style="fill: rgb(35, 4, 157);" transform="matrix(0.999671, -0.025651, 0.025651, 0.999671, -5.770105, 5.02811)"/>
  <circle style="fill: rgb(35, 4, 157);" cx="137.645" cy="203.397" r="13.989" transform="matrix(0.913547, -0.406737, 0.559068, 1.255686, -96.754852, -2.884827)"/>
  <circle style="fill: rgb(35, 4, 157);" cx="137.645" cy="203.397" r="13.989" transform="matrix(0.984809, -0.173648, 0.238683, 1.353638, -13.942408, -80.903915)"/>
  <circle style="fill: rgb(35, 4, 157);" cx="137.645" cy="203.397" r="13.989" transform="matrix(0.984809, 0.173649, -0.238683, 1.353638, 123.614723, -129.068878)"/>
  <circle style="fill: rgb(35, 4, 157);" cx="137.645" cy="203.397" r="13.989" transform="matrix(0.913547, 0.406737, -0.559067, 1.255686, 230.742157, -116.662895)"/>
  <g transform="matrix(1, 0, 0, 1, 2.890173, -7.225433)">
    <rect x="90.679" y="143.786" width="46.604" height="8" style="fill: rgb(170, 46, 230);"/>
    <rect x="90.04" y="144.425" width="8" height="40.101" style="fill: rgb(170, 46, 230);"/>
  </g>
  <g transform="matrix(-1, 0, 0, 1, 382.447601, -5.55774)">
    <rect x="90.679" y="143.786" width="46.604" height="8" style="fill: rgb(170, 46, 230);"/>
    <rect x="90.04" y="144.425" width="8" height="40.101" style="fill: rgb(170, 46, 230);"/>
  </g>
  <g transform="matrix(-1, 0, 0, -1, 382.447601, 416.323608)">
    <rect x="90.679" y="143.786" width="46.604" height="8" style="fill: rgb(170, 46, 230);"/>
    <rect x="90.04" y="144.425" width="8" height="40.101" style="fill: rgb(170, 46, 230);"/>
  </g>
  <g transform="matrix(1, 0, 0, -1, 6.641963, 415.962341)">
    <rect x="90.679" y="143.786" width="46.604" height="8" style="fill: rgb(170, 46, 230);"/>
    <rect x="90.04" y="144.425" width="8" height="40.101" style="fill: rgb(170, 46, 230);"/>
  </g>
</svg>